<mxfile host="app.diagrams.net" agent="Mozilla/5.0 (Windows NT 10.0; Win64; x64) AppleWebKit/537.36 (KHTML, like Gecko) Chrome/133.0.0.0 Safari/537.36" version="26.1.0">
  <diagram name="Page-1" id="pmyJmY7uBZGN7VSUFBjr">
    <mxGraphModel dx="934" dy="525" grid="1" gridSize="10" guides="1" tooltips="1" connect="1" arrows="1" fold="1" page="1" pageScale="1" pageWidth="850" pageHeight="1100" math="0" shadow="0">
      <root>
        <mxCell id="0" />
        <mxCell id="1" parent="0" />
        <mxCell id="bm7KIZvfK2iJY-ZO-ZmA-1" value="" style="rounded=0;whiteSpace=wrap;html=1;" vertex="1" parent="1">
          <mxGeometry x="120" y="40" width="620" height="470" as="geometry" />
        </mxCell>
        <mxCell id="bm7KIZvfK2iJY-ZO-ZmA-2" value="" style="endArrow=none;html=1;rounded=0;entryX=0.338;entryY=0.011;entryDx=0;entryDy=0;exitX=0.334;exitY=1.003;exitDx=0;exitDy=0;entryPerimeter=0;exitPerimeter=0;" edge="1" parent="1" source="bm7KIZvfK2iJY-ZO-ZmA-1">
          <mxGeometry width="50" height="50" relative="1" as="geometry">
            <mxPoint x="332.24" y="400.00000000000006" as="sourcePoint" />
            <mxPoint x="330" y="39.99999999999998" as="targetPoint" />
            <Array as="points" />
          </mxGeometry>
        </mxCell>
        <mxCell id="bm7KIZvfK2iJY-ZO-ZmA-3" value="" style="endArrow=none;html=1;rounded=0;entryX=0.5;entryY=0;entryDx=0;entryDy=0;exitX=0.661;exitY=1.001;exitDx=0;exitDy=0;exitPerimeter=0;" edge="1" parent="1" source="bm7KIZvfK2iJY-ZO-ZmA-1">
          <mxGeometry width="50" height="50" relative="1" as="geometry">
            <mxPoint x="530" y="400" as="sourcePoint" />
            <mxPoint x="530" y="40" as="targetPoint" />
          </mxGeometry>
        </mxCell>
        <mxCell id="bm7KIZvfK2iJY-ZO-ZmA-5" value="" style="endArrow=none;html=1;rounded=0;entryX=0.998;entryY=0.091;entryDx=0;entryDy=0;entryPerimeter=0;exitX=-0.005;exitY=0.084;exitDx=0;exitDy=0;exitPerimeter=0;" edge="1" parent="1" source="bm7KIZvfK2iJY-ZO-ZmA-1" target="bm7KIZvfK2iJY-ZO-ZmA-1">
          <mxGeometry width="50" height="50" relative="1" as="geometry">
            <mxPoint x="120" y="83" as="sourcePoint" />
            <mxPoint x="430" y="210" as="targetPoint" />
            <Array as="points">
              <mxPoint x="290" y="81" />
              <mxPoint x="580" y="81" />
            </Array>
          </mxGeometry>
        </mxCell>
        <mxCell id="bm7KIZvfK2iJY-ZO-ZmA-7" value="User" style="text;html=1;align=center;verticalAlign=middle;whiteSpace=wrap;rounded=0;" vertex="1" parent="1">
          <mxGeometry x="200" y="50" width="60" height="30" as="geometry" />
        </mxCell>
        <mxCell id="bm7KIZvfK2iJY-ZO-ZmA-8" value="Search form" style="text;html=1;align=center;verticalAlign=middle;whiteSpace=wrap;rounded=0;" vertex="1" parent="1">
          <mxGeometry x="380" y="50" width="80" height="30" as="geometry" />
        </mxCell>
        <mxCell id="bm7KIZvfK2iJY-ZO-ZmA-9" value="Error form" style="text;html=1;align=center;verticalAlign=middle;whiteSpace=wrap;rounded=0;" vertex="1" parent="1">
          <mxGeometry x="590" y="50" width="60" height="30" as="geometry" />
        </mxCell>
        <mxCell id="bm7KIZvfK2iJY-ZO-ZmA-10" value="" style="ellipse;whiteSpace=wrap;html=1;aspect=fixed;fillColor=#647687;fontColor=#ffffff;strokeColor=#314354;" vertex="1" parent="1">
          <mxGeometry x="220" y="90" width="10" height="10" as="geometry" />
        </mxCell>
        <mxCell id="bm7KIZvfK2iJY-ZO-ZmA-12" value="" style="endArrow=classic;html=1;rounded=0;exitX=0.5;exitY=1;exitDx=0;exitDy=0;" edge="1" parent="1" source="bm7KIZvfK2iJY-ZO-ZmA-10">
          <mxGeometry width="50" height="50" relative="1" as="geometry">
            <mxPoint x="380" y="260" as="sourcePoint" />
            <mxPoint x="225" y="150" as="targetPoint" />
          </mxGeometry>
        </mxCell>
        <mxCell id="bm7KIZvfK2iJY-ZO-ZmA-13" value="Chọn chức năng tìm kiếm" style="rounded=1;whiteSpace=wrap;html=1;" vertex="1" parent="1">
          <mxGeometry x="160" y="150" width="140" height="30" as="geometry" />
        </mxCell>
        <mxCell id="bm7KIZvfK2iJY-ZO-ZmA-15" value="Hiển thị giao diện tìm kiếm" style="rounded=1;whiteSpace=wrap;html=1;" vertex="1" parent="1">
          <mxGeometry x="350" y="150" width="150" height="30" as="geometry" />
        </mxCell>
        <mxCell id="bm7KIZvfK2iJY-ZO-ZmA-16" value="" style="endArrow=classic;html=1;rounded=0;exitX=1;exitY=0.5;exitDx=0;exitDy=0;entryX=0;entryY=0.5;entryDx=0;entryDy=0;" edge="1" parent="1" source="bm7KIZvfK2iJY-ZO-ZmA-13" target="bm7KIZvfK2iJY-ZO-ZmA-15">
          <mxGeometry width="50" height="50" relative="1" as="geometry">
            <mxPoint x="380" y="260" as="sourcePoint" />
            <mxPoint x="430" y="210" as="targetPoint" />
          </mxGeometry>
        </mxCell>
        <mxCell id="bm7KIZvfK2iJY-ZO-ZmA-17" value="Nhập từ khóa vào thanh tìm kiếm" style="rounded=1;whiteSpace=wrap;html=1;" vertex="1" parent="1">
          <mxGeometry x="140" y="200" width="180" height="30" as="geometry" />
        </mxCell>
        <mxCell id="bm7KIZvfK2iJY-ZO-ZmA-18" value="" style="endArrow=classic;html=1;rounded=0;exitX=0.5;exitY=1;exitDx=0;exitDy=0;" edge="1" parent="1" source="bm7KIZvfK2iJY-ZO-ZmA-15">
          <mxGeometry width="50" height="50" relative="1" as="geometry">
            <mxPoint x="380" y="260" as="sourcePoint" />
            <mxPoint x="320" y="215" as="targetPoint" />
          </mxGeometry>
        </mxCell>
        <mxCell id="bm7KIZvfK2iJY-ZO-ZmA-19" value="" style="rhombus;whiteSpace=wrap;html=1;" vertex="1" parent="1">
          <mxGeometry x="420" y="205" width="30" height="20" as="geometry" />
        </mxCell>
        <mxCell id="bm7KIZvfK2iJY-ZO-ZmA-20" value="" style="endArrow=classic;html=1;rounded=0;exitX=1;exitY=0.5;exitDx=0;exitDy=0;entryX=0;entryY=0.5;entryDx=0;entryDy=0;" edge="1" parent="1" source="bm7KIZvfK2iJY-ZO-ZmA-17" target="bm7KIZvfK2iJY-ZO-ZmA-19">
          <mxGeometry width="50" height="50" relative="1" as="geometry">
            <mxPoint x="380" y="260" as="sourcePoint" />
            <mxPoint x="430" y="210" as="targetPoint" />
          </mxGeometry>
        </mxCell>
        <mxCell id="bm7KIZvfK2iJY-ZO-ZmA-45" style="edgeStyle=orthogonalEdgeStyle;rounded=0;orthogonalLoop=1;jettySize=auto;html=1;entryX=0.5;entryY=1;entryDx=0;entryDy=0;" edge="1" parent="1" source="bm7KIZvfK2iJY-ZO-ZmA-23" target="bm7KIZvfK2iJY-ZO-ZmA-43">
          <mxGeometry relative="1" as="geometry">
            <Array as="points">
              <mxPoint x="730" y="195" />
              <mxPoint x="730" y="500" />
              <mxPoint x="435" y="500" />
            </Array>
          </mxGeometry>
        </mxCell>
        <mxCell id="bm7KIZvfK2iJY-ZO-ZmA-23" value="Hiển thị xâu rỗng" style="rounded=1;whiteSpace=wrap;html=1;" vertex="1" parent="1">
          <mxGeometry x="545" y="180" width="145" height="30" as="geometry" />
        </mxCell>
        <mxCell id="bm7KIZvfK2iJY-ZO-ZmA-24" value="" style="endArrow=classic;html=1;rounded=0;entryX=0;entryY=0.5;entryDx=0;entryDy=0;exitX=1;exitY=0.5;exitDx=0;exitDy=0;" edge="1" parent="1" source="bm7KIZvfK2iJY-ZO-ZmA-19" target="bm7KIZvfK2iJY-ZO-ZmA-23">
          <mxGeometry width="50" height="50" relative="1" as="geometry">
            <mxPoint x="380" y="260" as="sourcePoint" />
            <mxPoint x="430" y="210" as="targetPoint" />
          </mxGeometry>
        </mxCell>
        <mxCell id="bm7KIZvfK2iJY-ZO-ZmA-25" value="&lt;font style=&quot;font-size: 6px;&quot;&gt;Xâu rỗng&lt;/font&gt;" style="edgeLabel;html=1;align=center;verticalAlign=middle;resizable=0;points=[];" vertex="1" connectable="0" parent="bm7KIZvfK2iJY-ZO-ZmA-24">
          <mxGeometry x="-0.0614" relative="1" as="geometry">
            <mxPoint y="-11" as="offset" />
          </mxGeometry>
        </mxCell>
        <mxCell id="bm7KIZvfK2iJY-ZO-ZmA-26" value="Truy cập vào cơ sở dữ liệu để tìm kiếm" style="rounded=1;whiteSpace=wrap;html=1;" vertex="1" parent="1">
          <mxGeometry x="360" y="270" width="170" height="30" as="geometry" />
        </mxCell>
        <mxCell id="bm7KIZvfK2iJY-ZO-ZmA-27" value="" style="endArrow=classic;html=1;rounded=0;exitX=0.5;exitY=1;exitDx=0;exitDy=0;entryX=0.439;entryY=-0.044;entryDx=0;entryDy=0;entryPerimeter=0;" edge="1" parent="1" source="bm7KIZvfK2iJY-ZO-ZmA-19" target="bm7KIZvfK2iJY-ZO-ZmA-26">
          <mxGeometry width="50" height="50" relative="1" as="geometry">
            <mxPoint x="380" y="260" as="sourcePoint" />
            <mxPoint x="430" y="210" as="targetPoint" />
          </mxGeometry>
        </mxCell>
        <mxCell id="bm7KIZvfK2iJY-ZO-ZmA-28" value="&lt;font style=&quot;font-size: 6px;&quot;&gt;Xâu không rỗng&lt;/font&gt;" style="edgeLabel;html=1;align=center;verticalAlign=middle;resizable=0;points=[];" vertex="1" connectable="0" parent="bm7KIZvfK2iJY-ZO-ZmA-27">
          <mxGeometry x="0.0876" y="-1" relative="1" as="geometry">
            <mxPoint x="-43" y="-19" as="offset" />
          </mxGeometry>
        </mxCell>
        <mxCell id="bm7KIZvfK2iJY-ZO-ZmA-32" value="" style="rhombus;whiteSpace=wrap;html=1;" vertex="1" parent="1">
          <mxGeometry x="420" y="330" width="30" height="20" as="geometry" />
        </mxCell>
        <mxCell id="bm7KIZvfK2iJY-ZO-ZmA-34" value="" style="endArrow=classic;html=1;rounded=0;entryX=0.439;entryY=-0.044;entryDx=0;entryDy=0;entryPerimeter=0;exitX=0.435;exitY=1;exitDx=0;exitDy=0;exitPerimeter=0;" edge="1" parent="1" source="bm7KIZvfK2iJY-ZO-ZmA-26">
          <mxGeometry width="50" height="50" relative="1" as="geometry">
            <mxPoint x="435" y="310" as="sourcePoint" />
            <mxPoint x="434.5" y="330" as="targetPoint" />
          </mxGeometry>
        </mxCell>
        <mxCell id="bm7KIZvfK2iJY-ZO-ZmA-36" value="Hiển thị lỗi không có kết quả" style="rounded=1;whiteSpace=wrap;html=1;" vertex="1" parent="1">
          <mxGeometry x="560" y="325" width="150" height="35" as="geometry" />
        </mxCell>
        <mxCell id="bm7KIZvfK2iJY-ZO-ZmA-37" value="Hiển thị kết quả tìm kiếm" style="rounded=1;whiteSpace=wrap;html=1;" vertex="1" parent="1">
          <mxGeometry x="360" y="380" width="150" height="30" as="geometry" />
        </mxCell>
        <mxCell id="bm7KIZvfK2iJY-ZO-ZmA-38" value="" style="endArrow=classic;html=1;rounded=0;exitX=1;exitY=0.5;exitDx=0;exitDy=0;entryX=0;entryY=0.5;entryDx=0;entryDy=0;" edge="1" parent="1" source="bm7KIZvfK2iJY-ZO-ZmA-32" target="bm7KIZvfK2iJY-ZO-ZmA-36">
          <mxGeometry width="50" height="50" relative="1" as="geometry">
            <mxPoint x="380" y="260" as="sourcePoint" />
            <mxPoint x="430" y="210" as="targetPoint" />
          </mxGeometry>
        </mxCell>
        <mxCell id="bm7KIZvfK2iJY-ZO-ZmA-40" value="&lt;font style=&quot;font-size: 6px;&quot;&gt;Không có kết quả&lt;/font&gt;" style="edgeLabel;html=1;align=center;verticalAlign=middle;resizable=0;points=[];" vertex="1" connectable="0" parent="bm7KIZvfK2iJY-ZO-ZmA-38">
          <mxGeometry x="-0.1867" y="-4" relative="1" as="geometry">
            <mxPoint y="-19" as="offset" />
          </mxGeometry>
        </mxCell>
        <mxCell id="bm7KIZvfK2iJY-ZO-ZmA-39" value="" style="endArrow=classic;html=1;rounded=0;exitX=0.5;exitY=1;exitDx=0;exitDy=0;entryX=0.5;entryY=0;entryDx=0;entryDy=0;" edge="1" parent="1" source="bm7KIZvfK2iJY-ZO-ZmA-32" target="bm7KIZvfK2iJY-ZO-ZmA-37">
          <mxGeometry width="50" height="50" relative="1" as="geometry">
            <mxPoint x="380" y="260" as="sourcePoint" />
            <mxPoint x="430" y="210" as="targetPoint" />
          </mxGeometry>
        </mxCell>
        <mxCell id="bm7KIZvfK2iJY-ZO-ZmA-41" value="&lt;font style=&quot;font-size: 6px;&quot;&gt;Có kết quả&lt;/font&gt;" style="edgeLabel;html=1;align=center;verticalAlign=middle;resizable=0;points=[];" vertex="1" connectable="0" parent="bm7KIZvfK2iJY-ZO-ZmA-39">
          <mxGeometry x="-0.2" y="1" relative="1" as="geometry">
            <mxPoint x="-36" as="offset" />
          </mxGeometry>
        </mxCell>
        <mxCell id="bm7KIZvfK2iJY-ZO-ZmA-43" value="" style="ellipse;whiteSpace=wrap;html=1;aspect=fixed;fillColor=#647687;fontColor=#ffffff;strokeColor=#314354;" vertex="1" parent="1">
          <mxGeometry x="430" y="470" width="10" height="10" as="geometry" />
        </mxCell>
        <mxCell id="bm7KIZvfK2iJY-ZO-ZmA-44" value="" style="endArrow=classic;html=1;rounded=0;exitX=0.5;exitY=1;exitDx=0;exitDy=0;entryX=0.5;entryY=0;entryDx=0;entryDy=0;" edge="1" parent="1" target="bm7KIZvfK2iJY-ZO-ZmA-43">
          <mxGeometry width="50" height="50" relative="1" as="geometry">
            <mxPoint x="434.5" y="410" as="sourcePoint" />
            <mxPoint x="434.5" y="460" as="targetPoint" />
          </mxGeometry>
        </mxCell>
        <mxCell id="bm7KIZvfK2iJY-ZO-ZmA-47" value="" style="endArrow=classic;html=1;rounded=0;exitX=0.5;exitY=1;exitDx=0;exitDy=0;entryX=0;entryY=1;entryDx=0;entryDy=0;" edge="1" parent="1" target="bm7KIZvfK2iJY-ZO-ZmA-43">
          <mxGeometry width="50" height="50" relative="1" as="geometry">
            <mxPoint x="630" y="360" as="sourcePoint" />
            <mxPoint x="630" y="410" as="targetPoint" />
            <Array as="points">
              <mxPoint x="630" y="480" />
            </Array>
          </mxGeometry>
        </mxCell>
      </root>
    </mxGraphModel>
  </diagram>
</mxfile>
